<svg xmlns="http://www.w3.org/2000/svg" width="32" height="40" viewBox="0 0 32 40"><defs><style>.a{fill:#1a1818;}.b{fill:#d2d2d2;}.c{fill:#9a9a9a;}</style></defs><g transform="translate(-3)"><path class="a" d="M19,34.28a1,1,0,0,1-.71-.3l-6.64-6.63,1.42-1.42L19,31.86l5.93-5.93,1.42,1.42L19.71,34A1,1,0,0,1,19,34.28Z"/><rect class="a" width="2" height="17" transform="translate(18 16)"/><path class="a" d="M12,0H10L9,1,3,7H3V40H35V0ZM10,3V7H5.89ZM33,38H5V9h6a1,1,0,0,0,1-1V2H33Z"/><path class="b" d="M12,2V9H5v4H33V2Z"/><rect class="c" width="18" height="5" transform="translate(15 5)"/></g></svg>
