<svg xmlns="http://www.w3.org/2000/svg" width="305" height="73.86" viewBox="0 0 305 73.86"><defs><style>.a{fill:#dbc764;}</style></defs><g transform="translate(0.007 0.007)"><path class="a" d="M317.219,526.505V521.89a27.256,27.256,0,0,0,9.555,8.443,4.515,4.515,0,0,1-.624.624,5.38,5.38,0,0,1-8.858-3.625h.008A3.952,3.952,0,0,1,317.219,526.505Z" transform="translate(-278.629 -458.397)"/><path class="a" d="M220.825,526.505V521.89a27.255,27.255,0,0,1-9.555,8.443,4.526,4.526,0,0,0,.625.624,5.38,5.38,0,0,0,8.857-3.625h-.007A4.034,4.034,0,0,0,220.825,526.505Z" transform="translate(-185.57 -458.397)"/><path class="a" d="M407.307,358.71a22.536,22.536,0,0,0,14.489.394l-3.476-3.476a11.773,11.773,0,0,0-16.65,0A22.412,22.412,0,0,0,407.307,358.71Z" transform="translate(-352.804 -309.335)"/><path class="a" d="M355.108,402.21a11.773,11.773,0,0,0,0,16.65l3.476,3.477A22.416,22.416,0,0,0,355.108,402.21Z" transform="translate(-308.878 -353.278)"/><path class="a" d="M470.883,445.819l-3.263-3.263a27.255,27.255,0,0,0,12.727-.786,4.658,4.658,0,0,1,0,.883,5.382,5.382,0,0,1-8.827,3.7l.006-.006A4.038,4.038,0,0,1,470.883,445.819Z" transform="translate(-410.73 -388.025)"/><path class="a" d="M445.819,470.883l-3.263-3.263a27.255,27.255,0,0,1-.786,12.727,4.658,4.658,0,0,0,.883,0,5.382,5.382,0,0,0,3.7-8.827l-.006.006A4.038,4.038,0,0,0,445.819,470.883Z" transform="translate(-388.025 -410.73)"/><path class="a" d="M526.505,220.825H521.89a27.255,27.255,0,0,0,8.443-9.555,4.526,4.526,0,0,1,.624.625,5.38,5.38,0,0,1-3.625,8.857v-.007A4.034,4.034,0,0,1,526.505,220.825Z" transform="translate(-458.397 -185.57)"/><path class="a" d="M526.505,317.219H521.89a27.256,27.256,0,0,1,8.443,9.555,4.515,4.515,0,0,0,.624-.624,5.38,5.38,0,0,0-3.625-8.858v.008A3.952,3.952,0,0,0,526.505,317.219Z" transform="translate(-458.397 -278.629)"/><path class="a" d="M358.71,54.409A22.536,22.536,0,0,0,359.1,39.92L355.628,43.4a11.773,11.773,0,0,0,0,16.65,22.417,22.417,0,0,0,3.082-5.637Z" transform="translate(-309.335 -35.069)"/><path class="a" d="M402.21,194.581a11.773,11.773,0,0,0,16.65,0l3.477-3.476A22.416,22.416,0,0,0,402.21,194.581Z" transform="translate(-353.278 -166.967)"/><path class="a" d="M445.819,44.114l-3.263,3.263a27.245,27.245,0,0,0-.786-12.726,4.464,4.464,0,0,1,.883,0,5.379,5.379,0,0,1,3.7,8.826h-.006A3.986,3.986,0,0,1,445.819,44.114Z" transform="translate(-388.025 -30.423)"/><path class="a" d="M470.883,119.045l-3.263,3.263a27.255,27.255,0,0,1,12.727.786,4.658,4.658,0,0,0,0-.883,5.382,5.382,0,0,0-8.827-3.7h.006A3.966,3.966,0,0,0,470.883,119.045Z" transform="translate(-410.73 -102.991)"/><path class="a" d="M220.825,5.745V10.36a27.245,27.245,0,0,0-9.555-8.444,4.594,4.594,0,0,1,.625-.624,5.38,5.38,0,0,1,8.857,3.626h-.007A4.034,4.034,0,0,1,220.825,5.745Z" transform="translate(-185.57 -0.007)"/><path class="a" d="M317.219,5.738v4.615a27.245,27.245,0,0,1,9.555-8.444,4.584,4.584,0,0,0-.624-.624,5.38,5.38,0,0,0-8.858,3.626h.008a3.953,3.953,0,0,0-.082.827Z" transform="translate(-278.629 0)"/><path class="a" d="M54.409,191.049a22.524,22.524,0,0,0-14.489-.4l3.477,3.477a11.774,11.774,0,0,0,16.65,0A22.38,22.38,0,0,0,54.409,191.049Z" transform="translate(-35.069 -166.578)"/><path class="a" d="M194.591,59.526a11.773,11.773,0,0,0,0-16.646l-3.474-3.48a22.411,22.411,0,0,0,3.474,20.126Z" transform="translate(-166.978 -34.612)"/><path class="a" d="M44.114,119.043l3.263,3.263a27.245,27.245,0,0,0-12.726.786,4.464,4.464,0,0,1,0-.883,5.38,5.38,0,0,1,8.826-3.7h0A3.913,3.913,0,0,1,44.114,119.043Z" transform="translate(-30.423 -102.989)"/><path class="a" d="M119.043,44.114l3.263,3.263a27.245,27.245,0,0,1,.786-12.726,4.464,4.464,0,0,0-.883,0,5.38,5.38,0,0,0-3.7,8.826h0A3.913,3.913,0,0,0,119.043,44.114Z" transform="translate(-102.989 -30.423)"/><path class="a" d="M5.738,317.219h4.615a27.245,27.245,0,0,0-8.444,9.555,4.584,4.584,0,0,1-.624-.624,5.38,5.38,0,0,1,3.626-8.858v.008a3.953,3.953,0,0,1,.827-.082Z" transform="translate(0 -278.629)"/><path class="a" d="M5.745,220.825H10.36a27.245,27.245,0,0,1-8.444-9.555,4.592,4.592,0,0,0-.624.625,5.38,5.38,0,0,0,3.626,8.857v-.007a4.034,4.034,0,0,0,.827.08Z" transform="translate(-0.007 -185.571)"/><path class="a" d="M191.049,407.307a22.524,22.524,0,0,0-.4,14.489l3.477-3.476a11.774,11.774,0,0,0,0-16.65A22.372,22.372,0,0,0,191.049,407.307Z" transform="translate(-166.578 -352.804)"/><path class="a" d="M59.526,355.121a11.773,11.773,0,0,0-16.646,0L39.4,358.6a22.411,22.411,0,0,0,20.126-3.477Z" transform="translate(-34.612 -308.891)"/><path class="a" d="M119.045,470.883l3.263-3.263a27.255,27.255,0,0,0,.786,12.727,4.655,4.655,0,0,1-.883,0,5.382,5.382,0,0,1-3.7-8.827v.006A3.966,3.966,0,0,1,119.045,470.883Z" transform="translate(-102.991 -410.73)"/><path class="a" d="M44.114,445.819l3.263-3.263a27.245,27.245,0,0,1-12.726-.786,4.464,4.464,0,0,0,0,.883,5.379,5.379,0,0,0,8.826,3.7v-.006A3.983,3.983,0,0,0,44.114,445.819Z" transform="translate(-30.423 -388.025)"/><path class="a" d="M278.034,326.728a15.939,15.939,0,0,0,0,19.932v.038l.013-.02c0,.006.007.013.012.02v-.038a15.939,15.939,0,0,0,0-19.932v-.038l-.012.018-.013-.018Z" transform="translate(-241.137 -286.947)"/><path class="a" d="M326.728,278.269a15.939,15.939,0,0,0,19.932,0h.038l-.02-.012.02-.013h-.038a15.939,15.939,0,0,0-19.932,0h-.038l.018.013-.018.012Z" transform="translate(-286.947 -241.321)"/><path class="a" d="M278.273,135.84a15.939,15.939,0,0,0,0-19.931v-.039a.18.18,0,0,1-.012.019l-.013-.019v.039a15.939,15.939,0,0,0,0,19.931v.039l.013-.019c0,.006.007.013.012.019Z" transform="translate(-241.325 -101.778)"/><path class="a" d="M135.84,278.037a15.939,15.939,0,0,0-19.931,0h-.039l.019.013-.019.012h.039a15.939,15.939,0,0,0,19.931,0h.039l-.019-.012.019-.013Z" transform="translate(-101.778 -241.14)"/><path class="a" d="M777.2,160.4v34.871h-5.679v-24.41L760.516,187.4h-3.387l-11.01-16.585v24.456H740.44V160.4h5.131l13.251,19.976L772.074,160.4Z" transform="translate(-650.355 -140.89)"/><path class="a" d="M1141.27,195.271l14.745-34.871h6.227l14.7,34.871h-5.978l-3.088-7.523h-17.487l-3.088,7.523Zm11.059-12.5h13.551l-6.127-14.9c-.2-.548-.4-1.1-.647-1.947-.243.852-.449,1.394-.648,1.947Z" transform="translate(-1002.415 -140.89)"/><path class="a" d="M1521.949,155.08a24.822,24.822,0,0,1,10.561,2.291v5.53a18.427,18.427,0,0,0-9.764-2.59c-6.825,0-13.7,3.737-13.7,12.852,0,9.964,7.224,12.9,13.551,12.9a12.894,12.894,0,0,0,5.232-1v-13.2h5.529V188.9a27.722,27.722,0,0,1-11.109,2.342c-9.664,0-19.03-5.081-19.03-18.084C1503.219,160.858,1512.584,155.08,1521.949,155.08Z" transform="translate(-1320.326 -136.217)"/><path class="a" d="M1870.46,195.271V160.4h5.33l18.781,25.5c-.05-1.2-.05-2.541-.05-3.836V160.4h5.68v34.871h-5.331l-18.781-25.506c.05,1.2.05,2.541.05,3.786v21.72Z" transform="translate(-1642.882 -140.89)"/><path class="a" d="M2213.57,195.271l14.745-34.871h6.227l14.7,34.871h-5.978l-3.088-7.523h-17.487l-3.088,7.523Zm11.059-12.5h13.551l-6.127-14.9c-.2-.548-.4-1.1-.647-1.947-.25.852-.449,1.394-.648,1.947Z" transform="translate(-1944.245 -140.89)"/></g></svg>
